<svg width="131" height="131" viewBox="0 0 131 131" fill="none" xmlns="http://www.w3.org/2000/svg">
<path d="M0 30C0 13.4314 13.4315 0 30 0H100.845C117.414 0 130.845 13.4315 130.845 30V100.8C130.845 117.369 117.414 130.8 100.845 130.8H30C13.4314 130.8 0 117.369 0 100.8V30Z" fill="#7E3EFF"/>
<path d="M56.1335 27C56.1335 34.724 53.0641 42.1317 47.6005 47.5934C42.1369 53.0551 34.7267 56.1234 27 56.1234V75.5391H56.1335V104.662H75.5558C75.5558 96.9385 78.6252 89.5308 84.0888 84.0691C89.5524 78.6074 96.9626 75.5391 104.689 75.5391V56.1234H75.5558V27H56.1335Z" fill="white"/>
</svg>
