<svg width="124" height="25" viewBox="0 0 124 25" fill="none" xmlns="http://www.w3.org/2000/svg">
<path d="M37.3278 15.0678C35.8281 15.0678 34.5924 14.9482 33.6208 14.7091C32.6492 14.4597 31.931 14.0906 31.4663 13.6021C31.0016 13.1031 30.7692 12.4794 30.7692 11.7309C30.7692 11.0344 30.9963 10.4315 31.4504 9.92214C31.9046 9.40238 32.6122 8.99696 33.5733 8.70589C34.5449 8.41483 35.7964 8.2693 37.3278 8.2693C37.6341 8.2693 37.9457 8.2693 38.2625 8.2693C38.5794 8.2693 38.8909 8.2693 39.1972 8.2693H45.2488V10.234C44.5624 10.2652 43.8653 10.234 43.1577 10.1404C42.4607 10.0365 41.8164 9.90135 41.225 9.73502L41.0507 9.50113C41.526 9.64666 41.9748 9.83378 42.3973 10.0625C42.8303 10.2912 43.1788 10.5666 43.4429 10.8889C43.7069 11.2111 43.8389 11.5958 43.8389 12.0428C43.8389 12.6873 43.6118 13.2382 43.1577 13.6956C42.7141 14.1426 42.0118 14.4856 41.0507 14.7247C40.1002 14.9534 38.8592 15.0678 37.3278 15.0678ZM40.7022 19.4962V19.0751C40.7022 18.7633 40.5596 18.5762 40.2744 18.5138C39.9999 18.4618 39.5616 18.4358 38.9596 18.4358H34.5396C33.7898 18.4358 33.1825 18.3839 32.7178 18.2799C32.2637 18.176 31.9151 18.0356 31.6722 17.8589C31.4399 17.6822 31.2815 17.4847 31.197 17.2664C31.123 17.0585 31.0861 16.8506 31.0861 16.6427C31.0861 16.1957 31.2551 15.8474 31.593 15.5979C31.931 15.3381 32.4485 15.1561 33.1455 15.0522C33.8426 14.9482 34.7297 14.8963 35.807 14.8963L37.3278 15.0678C36.4407 15.0678 35.8228 15.1146 35.4743 15.2081C35.1258 15.2913 34.9515 15.4628 34.9515 15.7227C34.9515 15.8682 35.0202 15.9774 35.1575 16.0501C35.2948 16.1125 35.4796 16.1437 35.7119 16.1437H40.3853C41.4309 16.1437 42.2547 16.2165 42.8567 16.362C43.4587 16.5179 43.8811 16.7726 44.1241 17.126C44.3775 17.4899 44.5043 17.9836 44.5043 18.6074V19.4962H40.7022ZM37.3278 13.0251C38.0249 13.0251 38.5846 12.9731 39.0071 12.8692C39.4401 12.7548 39.7517 12.6041 39.9418 12.417C40.1319 12.2299 40.2269 12.022 40.2269 11.7933C40.2269 11.5334 40.1319 11.3099 39.9418 11.1228C39.7517 10.9357 39.4454 10.7901 39.0229 10.6862C38.6005 10.5822 38.0354 10.5303 37.3278 10.5303C36.6308 10.5303 36.0658 10.5822 35.6327 10.6862C35.1997 10.7901 34.8829 10.9357 34.6822 11.1228C34.4815 11.3099 34.3812 11.5334 34.3812 11.7933C34.3812 12.022 34.4763 12.2299 34.6664 12.417C34.867 12.6041 35.1839 12.7548 35.6169 12.8692C36.0499 12.9731 36.6202 13.0251 37.3278 13.0251Z" fill="white"/>
<path d="M56.5042 13.3993H60.243C60.1479 14.0023 59.8416 14.5272 59.3241 14.9742C58.8172 15.4212 58.0726 15.7695 57.0904 16.0189C56.1187 16.258 54.8778 16.3776 53.3675 16.3776C51.7727 16.3776 50.3945 16.2528 49.2327 16.0034C48.0816 15.7539 47.1944 15.3329 46.5713 14.7403C45.9482 14.1478 45.6366 13.3474 45.6366 12.339C45.6366 11.3411 45.9376 10.5459 46.5396 9.95332C47.1522 9.3504 48.034 8.919 49.1852 8.65912C50.3364 8.39924 51.7305 8.2693 53.3675 8.2693C54.9728 8.2693 56.2877 8.40963 57.3122 8.6903C58.3366 8.97097 59.0918 9.42836 59.5776 10.0625C60.0634 10.6862 60.2958 11.5334 60.2746 12.6041H49.5021C49.5549 12.8744 49.7027 13.1239 49.9456 13.3526C50.1991 13.5813 50.5846 13.7684 51.1021 13.9139C51.6302 14.049 52.3325 14.1166 53.2091 14.1166C54.1174 14.1166 54.8619 14.0542 55.4428 13.9295C56.0343 13.8048 56.3881 13.628 56.5042 13.3993ZM53.2091 10.5303C52.0896 10.5303 51.2341 10.6498 50.6427 10.8889C50.0618 11.128 49.7186 11.3671 49.613 11.6062H56.5834C56.5095 11.3359 56.2138 11.0916 55.6963 10.8733C55.1788 10.6446 54.3497 10.5303 53.2091 10.5303Z" fill="white"/>
<path d="M67.2949 16.362C66.1543 16.362 65.1404 16.2061 64.2532 15.8942C63.3661 15.572 62.6637 15.1094 62.1462 14.5064C61.6393 13.9035 61.3858 13.1758 61.3858 12.3234C61.3858 11.4294 61.6393 10.681 62.1462 10.0781C62.6637 9.47514 63.3661 9.02295 64.2532 8.72149C65.1404 8.42003 66.1543 8.2693 67.2949 8.2693C68.2454 8.2693 69.1009 8.36805 69.8613 8.56556C70.6217 8.75267 71.2712 9.02815 71.8099 9.39198C72.3485 9.74542 72.7604 10.1716 73.0455 10.6706C73.3307 11.1696 73.4733 11.7205 73.4733 12.3234C73.4733 12.9264 73.3307 13.4773 73.0455 13.9763C72.7604 14.4649 72.3485 14.8911 71.8099 15.2549C71.2712 15.6083 70.6217 15.8838 69.8613 16.0813C69.1009 16.2684 68.2454 16.362 67.2949 16.362ZM68.7207 13.9919C69.5233 13.9919 70.2573 13.9451 70.9227 13.8515C71.5986 13.7476 72.1373 13.5761 72.5386 13.337C72.9505 13.0979 73.1564 12.76 73.1564 12.3234C73.1564 11.8764 72.9505 11.5334 72.5386 11.2943C72.1373 11.0552 71.5986 10.8889 70.9227 10.7953C70.2573 10.7018 69.5233 10.655 68.7207 10.655C67.6434 10.655 66.8091 10.7953 66.2176 11.076C65.6262 11.3463 65.3305 11.7621 65.3305 12.3234C65.3305 12.6873 65.4625 12.9939 65.7265 13.2434C65.9906 13.4929 66.3761 13.68 66.883 13.8048C67.3899 13.9295 68.0025 13.9919 68.7207 13.9919ZM73.1564 5.38462H76.9585V16.1437H73.3782C73.336 15.9046 73.2884 15.52 73.2356 14.9898C73.1828 14.4493 73.1564 13.8463 73.1564 13.181V5.38462Z" fill="white"/>
<path d="M91.3693 10.8421L82.7988 14.4753L82.6562 13.8048H91.4644V16.1437H79.171V13.8048L87.6781 10.1716L87.8207 10.8421H79.171V8.50319H91.3693V10.8421Z" fill="white"/>
<path d="M103.845 13.3993H107.583C107.488 14.0023 107.182 14.5272 106.665 14.9742C106.158 15.4212 105.413 15.7695 104.431 16.0189C103.459 16.258 102.218 16.3776 100.708 16.3776C99.1132 16.3776 97.7349 16.2528 96.5732 16.0034C95.422 15.7539 94.5348 15.3329 93.9117 14.7403C93.2886 14.1478 92.977 13.3474 92.977 12.339C92.977 11.3411 93.278 10.5459 93.88 9.95332C94.4926 9.3504 95.3745 8.919 96.5257 8.65912C97.6768 8.39924 99.0709 8.2693 100.708 8.2693C102.313 8.2693 103.628 8.40963 104.653 8.6903C105.677 8.97097 106.432 9.42836 106.918 10.0625C107.404 10.6862 107.636 11.5334 107.615 12.6041H96.8425C96.8953 12.8744 97.0432 13.1239 97.2861 13.3526C97.5395 13.5813 97.925 13.7684 98.4425 13.9139C98.9706 14.049 99.6729 14.1166 100.55 14.1166C101.458 14.1166 102.202 14.0542 102.783 13.9295C103.375 13.8048 103.729 13.628 103.845 13.3993ZM100.55 10.5303C99.43 10.5303 98.5746 10.6498 97.9831 10.8889C97.4023 11.128 97.059 11.3671 96.9534 11.6062H103.924C103.85 11.3359 103.554 11.0916 103.037 10.8733C102.519 10.6446 101.69 10.5303 100.55 10.5303Z" fill="white"/>
<path d="M108.885 8.50319H112.687V16.1437H108.885V8.50319ZM118.39 8.2693C119.013 8.2693 119.615 8.33686 120.196 8.472C120.777 8.59674 121.294 8.81504 121.748 9.1269C122.213 9.43876 122.583 9.86496 122.857 10.4055C123.132 10.9461 123.269 11.627 123.269 12.4482V16.1437H119.467V12.916C119.467 12.1363 119.261 11.5854 118.849 11.2631C118.437 10.9305 117.693 10.7642 116.616 10.7642C116.045 10.7642 115.491 10.8265 114.952 10.9513C114.424 11.076 113.949 11.2267 113.526 11.4035C113.104 11.5698 112.771 11.7361 112.528 11.9024L112.497 11.3099C112.539 11.1228 112.681 10.8629 112.924 10.5303C113.178 10.1872 113.542 9.84417 114.017 9.50113C114.493 9.15809 115.089 8.86702 115.808 8.62793C116.536 8.38884 117.397 8.2693 118.39 8.2693Z" fill="white"/>
<path d="M25 19.2661C25 22.4328 22.4337 25 19.268 25H5.73197C2.56629 25 -2.76848e-07 22.4328 0 19.2661L1.18301e-06 5.73394C1.45986e-06 2.56717 2.56629 -2.76752e-07 5.73197 0L19.268 1.18336e-06C22.4337 1.46011e-06 25 2.56718 25 5.73395V19.2661Z" fill="#7E3EFF"/>
<path d="M11.051 5.43665L6.88067 11.4417C6.66012 11.7594 6.54984 12.1297 6.55 12.5H12.55V4.65C11.9827 4.65 11.4152 4.91219 11.051 5.43665Z" fill="white" fill-opacity="0.8"/>
<path d="M11.051 19.5634L6.88067 13.5582C6.66012 13.2405 6.54984 12.8703 6.55 12.5H12.55L12.55 20.35C11.9827 20.35 11.4152 20.0878 11.051 19.5634Z" fill="white" fill-opacity="0.65"/>
<path d="M14.0365 19.5634L18.172 13.5582C18.3908 13.2405 18.5001 12.8703 18.5 12.5H12.55L12.55 20.35C13.1126 20.35 13.6753 20.0878 14.0365 19.5634Z" fill="white" fill-opacity="0.8"/>
<path d="M14.0365 5.43665L18.172 11.4417C18.3908 11.7594 18.5001 12.1297 18.5 12.5H12.55V4.65C13.1126 4.65 13.6753 4.91219 14.0365 5.43665Z" fill="white" fill-opacity="0.95"/>
</svg>
