<svg width="627" height="116" viewBox="0 0 627 116" fill="none" xmlns="http://www.w3.org/2000/svg">
<path d="M0 43.5C11.5369 43.5 22.6013 38.917 30.7591 30.7591C38.917 22.6013 43.5 11.5369 43.5 1.26763e-06L72.5 0V43.5H116V72.5C104.463 72.5 93.3987 77.083 85.2409 85.2409C77.083 93.3987 72.5 104.463 72.5 116L43.5 116V72.5H1.26763e-06L0 43.5Z" fill="#7E3EFF"/>
<path d="M180.105 71.3525C172.306 71.3525 165.881 70.7308 160.828 69.4875C155.776 68.1902 152.041 66.2713 149.625 63.7307C147.208 61.136 146 57.8927 146 54.0007C146 50.379 147.181 47.2438 149.542 44.5951C151.904 41.8924 155.583 39.7842 160.581 38.2707C165.634 36.7571 172.141 36.0003 180.105 36.0003C181.697 36.0003 183.317 36.0003 184.965 36.0003C186.613 36.0003 188.233 36.0003 189.825 36.0003H221.294V46.2168C217.724 46.3789 214.1 46.2168 210.42 45.7303C206.795 45.1897 203.445 44.487 200.37 43.6221L199.464 42.4059C201.935 43.1626 204.269 44.1356 206.466 45.3249C208.718 46.5141 210.53 47.9465 211.903 49.6223C213.276 51.298 213.962 53.298 213.962 55.6224C213.962 58.9738 212.782 61.8387 210.42 64.2172C208.113 66.5415 204.461 68.3254 199.464 69.5686C194.521 70.7578 188.068 71.3525 180.105 71.3525ZM197.651 94.38V92.1908C197.651 90.5691 196.91 89.5961 195.427 89.2718C193.999 89.0015 191.72 88.8664 188.59 88.8664H165.606C161.707 88.8664 158.549 88.5961 156.133 88.0555C153.771 87.515 151.959 86.7852 150.696 85.8663C149.487 84.9473 148.664 83.9203 148.224 82.7851C147.84 81.704 147.648 80.6229 147.648 79.5418C147.648 77.2174 148.526 75.4066 150.284 74.1093C152.041 72.7579 154.732 71.8119 158.357 71.2714C161.981 70.7308 166.595 70.4606 172.196 70.4606L180.105 71.3525C175.492 71.3525 172.279 71.5957 170.466 72.0822C168.654 72.5146 167.748 73.4066 167.748 74.7579C167.748 75.5147 168.105 76.0823 168.819 76.4607C169.533 76.785 170.494 76.9472 171.702 76.9472H196.004C201.441 76.9472 205.724 77.3256 208.855 78.0823C211.985 78.8932 214.182 80.2175 215.445 82.0554C216.763 83.9473 217.422 86.515 217.422 89.7583V94.38H197.651ZM180.105 60.7306C183.729 60.7306 186.64 60.4603 188.837 59.9198C191.089 59.3252 192.709 58.5414 193.697 57.5684C194.686 56.5954 195.18 55.5143 195.18 54.3251C195.18 52.9737 194.686 51.8115 193.697 50.8385C192.709 49.8655 191.116 49.1087 188.919 48.5682C186.722 48.0276 183.784 47.7573 180.105 47.7573C176.48 47.7573 173.542 48.0276 171.29 48.5682C169.039 49.1087 167.391 49.8655 166.348 50.8385C165.304 51.8115 164.782 52.9737 164.782 54.3251C164.782 55.5143 165.277 56.5954 166.265 57.5684C167.309 58.5414 168.956 59.3252 171.208 59.9198C173.46 60.4603 176.425 60.7306 180.105 60.7306Z" fill="#1A1426"/>
<path d="M279.822 62.6766H299.263C298.769 65.8118 297.176 68.5416 294.485 70.866C291.849 73.1903 287.977 75.0012 282.87 76.2985C277.817 77.5418 271.364 78.1634 263.511 78.1634C255.218 78.1634 248.051 77.5148 242.01 76.2174C236.024 74.9201 231.411 72.7309 228.171 69.6497C224.93 66.5686 223.31 62.4063 223.31 57.163C223.31 51.9737 224.876 47.8384 228.006 44.7573C231.191 41.6221 235.777 39.3788 241.763 38.0274C247.749 36.676 254.999 36.0003 263.511 36.0003C271.859 36.0003 278.696 36.7301 284.023 38.1896C289.35 39.6491 293.277 42.0275 295.803 45.3249C298.33 48.5682 299.538 52.9737 299.428 58.5414H243.411C243.685 59.9468 244.454 61.2441 245.717 62.4333C247.035 63.6226 249.04 64.5956 251.731 65.3523C254.477 66.055 258.129 66.4064 262.687 66.4064C267.41 66.4064 271.282 66.0821 274.303 65.4334C277.378 64.7847 279.218 63.8658 279.822 62.6766ZM262.687 47.7573C256.866 47.7573 252.417 48.379 249.342 49.6223C246.321 50.8655 244.537 52.1088 243.987 53.3521H280.234C279.849 51.9466 278.312 50.6763 275.621 49.5412C272.93 48.352 268.619 47.7573 262.687 47.7573Z" fill="#1A1426"/>
<path d="M335.933 78.0823C330.002 78.0823 324.73 77.2715 320.117 75.6499C315.503 73.9741 311.851 71.5687 309.16 68.4335C306.524 65.2983 305.206 61.5144 305.206 57.0819C305.206 52.4331 306.524 48.5411 309.16 45.4059C311.851 42.2707 315.503 39.9193 320.117 38.3517C324.73 36.7841 330.002 36.0003 335.933 36.0003C340.876 36.0003 345.325 36.5139 349.279 37.5409C353.233 38.5139 356.61 39.9464 359.411 41.8383C362.212 43.6762 364.354 45.8924 365.837 48.4871C367.32 51.0817 368.061 53.9467 368.061 57.0819C368.061 60.2171 367.32 63.082 365.837 65.6767C364.354 68.2173 362.212 70.4335 359.411 72.3255C356.61 74.1633 353.233 75.5958 349.279 76.6228C345.325 77.5958 340.876 78.0823 335.933 78.0823ZM343.347 65.7577C347.521 65.7577 351.338 65.5145 354.798 65.028C358.313 64.4874 361.114 63.5955 363.201 62.3523C365.343 61.109 366.413 59.3522 366.413 57.0819C366.413 54.7575 365.343 52.9737 363.201 51.7304C361.114 50.4871 358.313 49.6223 354.798 49.1358C351.338 48.6493 347.521 48.406 343.347 48.406C337.746 48.406 333.407 49.1358 330.332 50.5952C327.256 52.0007 325.718 54.1629 325.718 57.0819C325.718 58.9738 326.405 60.5684 327.778 61.8658C329.151 63.1631 331.155 64.1361 333.792 64.7848C336.428 65.4334 339.613 65.7577 343.347 65.7577ZM366.413 21H386.184V76.9472H367.567C367.347 75.7039 367.1 73.7039 366.825 70.9471C366.551 68.1362 366.413 65.001 366.413 61.5414V21Z" fill="#1A1426"/>
<path d="M461.12 49.379L416.554 68.2713L415.812 64.7848H461.615V76.9472H397.689V64.7848L441.926 45.8924L442.668 49.379H397.689V37.2166H461.12V49.379Z" fill="#1A1426"/>
<path d="M525.992 62.6766H545.434C544.939 65.8118 543.347 68.5416 540.656 70.866C538.02 73.1903 534.148 75.0012 529.04 76.2985C523.988 77.5418 517.535 78.1634 509.681 78.1634C501.389 78.1634 494.222 77.5148 488.181 76.2174C482.194 74.9201 477.581 72.7309 474.341 69.6497C471.101 66.5686 469.481 62.4063 469.481 57.163C469.481 51.9737 471.046 47.8384 474.176 44.7573C477.361 41.6221 481.947 39.3788 487.933 38.0274C493.92 36.676 501.169 36.0003 509.681 36.0003C518.029 36.0003 524.866 36.7301 530.194 38.1896C535.521 39.6491 539.447 42.0275 541.974 45.3249C544.5 48.5682 545.708 52.9737 545.598 58.5414H489.581C489.856 59.9468 490.624 61.2441 491.888 62.4333C493.206 63.6226 495.21 64.5956 497.901 65.3523C500.647 66.055 504.299 66.4064 508.858 66.4064C513.581 66.4064 517.452 66.0821 520.473 65.4334C523.548 64.7847 525.388 63.8658 525.992 62.6766ZM508.858 47.7573C503.036 47.7573 498.588 48.379 495.512 49.6223C492.492 50.8655 490.707 52.1088 490.158 53.3521H526.404C526.02 51.9466 524.482 50.6763 521.791 49.5412C519.1 48.352 514.789 47.7573 508.858 47.7573Z" fill="#1A1426"/>
<path d="M552.2 37.2166H571.971V76.9472H552.2V37.2166ZM601.627 36.0003C604.868 36.0003 607.998 36.3517 611.019 37.0544C614.039 37.7031 616.73 38.8382 619.092 40.4599C621.508 42.0815 623.43 44.2978 624.858 47.1087C626.286 49.9196 627 53.4602 627 57.7305V76.9472H607.229V60.163C607.229 56.1089 606.158 53.244 604.016 51.5682C601.875 49.8385 598.003 48.9736 592.401 48.9736C589.435 48.9736 586.552 49.2979 583.751 49.9466C581.005 50.5952 578.534 51.3791 576.337 52.298C574.14 53.1629 572.41 54.0278 571.147 54.8926L570.983 51.8115C571.202 50.8385 571.944 49.4871 573.207 47.7573C574.525 45.9735 576.42 44.1897 578.891 42.4059C581.362 40.6221 584.465 39.1085 588.2 37.8652C591.989 36.622 596.465 36.0003 601.627 36.0003Z" fill="#1A1426"/>
</svg>
