<svg width="130" height="130" viewBox="0 0 130 130" fill="none" xmlns="http://www.w3.org/2000/svg">
<path fill-rule="evenodd" clip-rule="evenodd" d="M100.194 130C116.655 130 130 116.651 130 100.184V29.8165C130 13.3493 116.655 7.59259e-06 100.194 6.15347e-06L29.8062 0C13.3447 -1.43911e-06 7.59129e-06 13.3493 6.15168e-06 29.8165L0 100.183C-1.43961e-06 116.651 13.3447 130 29.8062 130H100.194ZM35.7795 59.4971L57.4652 28.2706C59.3592 25.5434 62.3098 24.18 65.26 24.18C68.1857 24.18 71.1115 25.5434 72.9896 28.2706L94.4945 59.4971C95.6322 61.149 96.2007 63.0745 96.2 65C96.2007 66.9254 95.6322 68.8508 94.4945 70.5028L72.9896 101.73C71.1115 104.457 68.1857 105.82 65.26 105.82C62.3098 105.82 59.3592 104.457 57.4652 101.73L35.7795 70.5028C34.6326 68.8508 34.0592 66.9254 34.06 65C34.0592 63.0745 34.6326 61.149 35.7795 59.4971Z" fill="#7E3EFF"/>
<path d="M57.4652 28.2706L35.7795 59.4971C34.6326 61.149 34.0592 63.0745 34.06 65C34.0592 66.9254 34.6326 68.8508 35.7795 70.5028L57.4652 101.73C59.3592 104.457 62.3098 105.82 65.26 105.82C68.1857 105.82 71.1115 104.457 72.9896 101.73L94.4945 70.5028C95.6322 68.8508 96.2007 66.9254 96.2 65C96.2007 63.0745 95.6322 61.149 94.4945 59.4971L72.9896 28.2706C71.1115 25.5434 68.1857 24.18 65.26 24.18C62.3098 24.18 59.3592 25.5434 57.4652 28.2706Z" fill="white"/>
</svg>
